<svg xmlns="http://www.w3.org/2000/svg" width="100" height="100" viewBox="0 0 100 100" role="img" aria-label="Ticketing Platform logo">
  <defs>
    <linearGradient id="ring" x1="0" y1="0" x2="1" y2="1">
      <stop offset="0%" stop-color="#0a3a5c" />
      <stop offset="100%" stop-color="#082f49" />
    </linearGradient>
  </defs>
  <circle cx="50" cy="50" r="50" fill="url(#ring)" />
  <circle cx="50" cy="50" r="50" fill="none" stroke="#fbbf24" stroke-opacity="0.35" stroke-width="2" />
  <!-- Ticket stub mark -->
  <g transform="translate(28 33)">
    <path
      d="M2 4
         a4 4 0 0 1 4 -4
         h32
         a4 4 0 0 1 4 4
         v6
         a4 4 0 0 0 0 8
         v6
         a4 4 0 0 1 -4 4
         h-32
         a4 4 0 0 1 -4 -4
         v-6
         a4 4 0 0 0 0 -8
         z"
      fill="#fbbf24" />
    <line x1="24" y1="2" x2="24" y2="32" stroke="#082f49" stroke-width="2" stroke-dasharray="3 3" />
  </g>
</svg>
